<?xml version="1.0" encoding="UTF-8"?>
<svg width="21px" height="21px" viewBox="0 0 21 21" version="1.1" xmlns="http://www.w3.org/2000/svg" xmlns:xlink="http://www.w3.org/1999/xlink">
    <title>Path</title>
    <g id="Page-1" stroke="none" stroke-width="1" fill="none" fill-rule="evenodd">
        <g id="github" fill="#FF5722">
            <path d="M10.5,0 C4.69875,0 0,4.81759944 0,10.7655854 C0,15.5293569 3.005625,19.5529944 7.179375,20.9794345 C7.704375,21.0736333 7.90125,20.7506658 7.90125,20.4680691 C7.90125,20.2123865 7.888125,19.3645967 7.888125,18.4629789 C5.25,18.9608872 4.5675,17.8035868 4.3575,17.1980226 C4.239375,16.888512 3.7275,15.9330663 3.28125,15.6773837 C2.91375,15.4755289 2.38875,14.9776206 3.268125,14.9641636 C4.095,14.9507067 4.685625,15.7446686 4.8825,16.0676361 C5.8275,17.6959309 7.336875,17.2383935 7.940625,16.9557969 C8.0325,16.2560339 8.308125,15.7850395 8.61,15.5158999 C6.27375,15.2467603 3.8325,14.3182285 3.8325,10.2003921 C3.8325,9.02963471 4.239375,8.06073203 4.90875,7.30714106 C4.80375,7.03800142 4.43625,5.93452892 5.01375,4.45426094 C5.01375,4.45426094 5.893125,4.17166432 7.90125,5.55773344 C8.74125,5.31550777 9.63375,5.19439493 10.52625,5.19439493 C11.41875,5.19439493 12.31125,5.31550777 13.15125,5.55773344 C15.159375,4.15820734 16.03875,4.45426094 16.03875,4.45426094 C16.61625,5.93452892 16.24875,7.03800142 16.14375,7.30714106 C16.813125,8.06073203 17.22,9.01617773 17.22,10.2003921 C17.22,14.3316855 14.765625,15.2467603 12.429375,15.5158999 C12.81,15.8523244 13.138125,16.4982596 13.138125,17.5075332 C13.138125,18.9474302 13.125,20.1047306 13.125,20.4680691 C13.125,20.7506658 13.321875,21.0870903 13.846875,20.9794345 C17.994375,19.5529944 21,15.5158999 21,10.7655854 C21,4.81759944 16.30125,0 10.5,0 Z" id="Path"></path>
        </g>
    </g>
</svg>