<svg width="24" height="23" xmlns="http://www.w3.org/2000/svg"><g fill-rule="nonzero" fill="none"><path d="M23.941 12.627L22.598 8.5 19.941.315a.46.46 0 00-.87 0l-2.658 8.18H7.585L4.928.315a.459.459 0 00-.87 0l-2.654 8.18-1.342 4.132a.915.915 0 00.33 1.022L12 22.083l11.605-8.434a.916.916 0 00.336-1.022" fill="#FC6D26"/><path d="M12 22.076l4.414-13.582H7.588z" fill="#E24329"/><path d="M12 22.076L7.585 8.494H1.407z" fill="#FC6D26"/><path d="M1.402 8.499L.06 12.626a.915.915 0 00.33 1.021L12 22.083 1.402 8.499z" fill="#FCA326"/><path d="M1.404 8.499H7.59L4.928.319a.46.46 0 00-.871 0l-2.653 8.18z" fill="#E24329"/><path d="M12 22.076l4.414-13.582H22.6z" fill="#FC6D26"/><path d="M22.597 8.499l1.343 4.127a.912.912 0 01-.331 1.021L12 22.077 22.594 8.498h.003z" fill="#FCA326"/><path d="M22.6 8.499h-6.185l2.657-8.18a.459.459 0 01.87 0l2.658 8.18z" fill="#E24329"/></g></svg>